:version 1.10
:name ASF
:units
  mass 1
  length 1
  angle deg
:documentation
  ASF file generated by Kaydara
:root
  axis xyz
  order  tx ty tz rx ry rz
  position 0 0 0
  orientation 0 0 0
:bonedata
  begin
    id 1
    name lfemurDummy
    direction 0.61522 -0.761478 0.204097
    length 5.68318
    axis 0 -0 0 xyz
  end
  begin
    id 2
    name lfemur
    direction 0.34202 -0.939693 -5.84747e-008
    length 16.9147
    axis 0 -0 20 xyz
    dof rx ry rz
    limits( -inf , inf )
( -inf , inf )
( -inf , inf )

  end
  begin
    id 3
    name ltibia
    direction 0.34202 -0.939693 1.20839e-009
    length 18.0532
    axis 0 -0 20 xyz
    dof rz ry rx
    limits( -inf , inf )
( -inf , inf )
( -inf , inf )

  end
  begin
    id 4
    name lfoot
    direction 0.0841971 -0.23133 0.969225
    length 5.23822
    axis -90 7.62852e-016 20 xyz
    dof ry rx rz
    limits( -inf , inf )
( -inf , inf )
( -inf , inf )

  end
  begin
    id 5
    name ltoes
    direction 0 0 0
    length 0
    axis 0 0 0 xyz
    dof rz ry rx
    limits( -inf , inf )
( -inf , inf )
( -inf , inf )

  end
  begin
    id 6
    name rfemurDummy
    direction -0.625247 -0.75382 0.202044
    length 5.74091
    axis 0 -0 0 xyz
  end
  begin
    id 7
    name rfemur
    direction -0.34202 -0.939693 -1.47013e-008
    length 16.4922
    axis 0 -0 -20 xyz
    dof rx ry rz
    limits( -inf , inf )
( -inf , inf )
( -inf , inf )

  end
  begin
    id 8
    name rtibia
    direction -0.34202 -0.939693 -7.74345e-010
    length 18.2421
    axis 0 -0 -20 xyz
    dof rz ry rx
    limits( -inf , inf )
( -inf , inf )
( -inf , inf )

  end
  begin
    id 9
    name rfoot
    direction -0.124331 -0.341598 0.931586
    length 5.45787
    axis -90 -7.62852e-016 -20 xyz
    dof ry rx rz
    limits( -inf , inf )
( -inf , inf )
( -inf , inf )

  end
  begin
    id 10
    name rtoes
    direction 0 0 0
    length 0
    axis 0 0 0 xyz
    dof rz ry rx
    limits( -inf , inf )
( -inf , inf )
( -inf , inf )

  end
  begin
    id 11
    name lowerbackDummy
    direction 0 0 0
    length 0
    axis 0 -0 0 xyz
  end
  begin
    id 12
    name lowerback
    direction -0.0218484 0.994884 -0.0986304
    length 4.45607
    axis 0 -0 0 xyz
    dof rx ry rz
    limits( -inf , inf )
( -inf , inf )
( -inf , inf )

  end
  begin
    id 13
    name upperback
    direction -0.00973057 0.999717 -0.0217111
    length 4.47449
    axis 0 -0 0 xyz
    dof rx ry rz
    limits( -inf , inf )
( -inf , inf )
( -inf , inf )

  end
  begin
    id 14
    name thorax
    direction -0.000928171 0.999699 0.0245198
    length 4.50973
    axis 0 -0 0 xyz
    dof rx ry rz
    limits( -inf , inf )
( -inf , inf )
( -inf , inf )

  end
  begin
    id 15
    name rclavicle
    direction -0.9009 0.425937 -0.0834055
    length 7.28587
    axis 0 -0 0 xyz
    dof rx ry rz
    limits( -inf , inf )
( -inf , inf )
( -inf , inf )

  end
  begin
    id 16
    name rhumerus
    direction -1 -2.23604e-007 -1.42637e-007
    length 13.5704
    axis 180 30 90 xyz
    dof rx ry rz
    limits( -inf , inf )
( -inf , inf )
( -inf , inf )

  end
  begin
    id 17
    name rradius
    direction -1 5.68281e-008 -4.4952e-007
    length 8.06782
    axis 180 30 90 xyz
    dof rz ry rx
    limits( -inf , inf )
( -inf , inf )
( -inf , inf )

  end
  begin
    id 18
    name rwrist
    direction -1 1.51393e-007 1.38143e-007
    length 4.03391
    axis -90 -90 0 xyz
    dof rz rx ry
    limits( -inf , inf )
( -inf , inf )
( -inf , inf )

  end
  begin
    id 19
    name rthumb
    direction 0 0 0
    length 0
    axis 0 0 0 xyz
    dof ry rx rz
    limits( -inf , inf )
( -inf , inf )
( -inf , inf )

  end
  begin
    id 20
    name rhand
    direction -1 -3.34077e-007 -5.59631e-007
    length 1.29744
    axis -90 -90 0 xyz
    dof ry rx rz
    limits( -inf , inf )
( -inf , inf )
( -inf , inf )

  end
  begin
    id 21
    name rfingers
    direction 0 0 0
    length 0
    axis 0 0 0 xyz
    dof rz ry rx
    limits( -inf , inf )
( -inf , inf )
( -inf , inf )

  end
  begin
    id 22
    name lclavicle
    direction 0.940017 0.332249 -0.0773232
    length 8.29589
    axis 0 -0 0 xyz
    dof rx ry rz
    limits( -inf , inf )
( -inf , inf )
( -inf , inf )

  end
  begin
    id 23
    name lhumerus
    direction 1 7.41158e-008 -1.44768e-008
    length 12.0042
    axis 180 -30 -90 xyz
    dof rx ry rz
    limits( -inf , inf )
( -inf , inf )
( -inf , inf )

  end
  begin
    id 24
    name lradius
    direction 1 -1.32972e-007 3.10821e-007
    length 8.1902
    axis 180 -30 -90 xyz
    dof rz ry rx
    limits( -inf , inf )
( -inf , inf )
( -inf , inf )

  end
  begin
    id 25
    name lwrist
    direction 1 3.08957e-007 4.01394e-007
    length 4.09509
    axis -90 90 0 xyz
    dof rz rx ry
    limits( -inf , inf )
( -inf , inf )
( -inf , inf )

  end
  begin
    id 26
    name lthumb
    direction 0 0 0
    length 0
    axis 0 0 0 xyz
    dof ry rx rz
    limits( -inf , inf )
( -inf , inf )
( -inf , inf )

  end
  begin
    id 27
    name lhand
    direction 1 -1.64125e-007 -6.99514e-007
    length 1.37229
    axis -90 90 0 xyz
    dof ry rx rz
    limits( -inf , inf )
( -inf , inf )
( -inf , inf )

  end
  begin
    id 28
    name lfingers
    direction 0 0 0
    length 0
    axis 0 0 0 xyz
    dof rz ry rx
    limits( -inf , inf )
( -inf , inf )
( -inf , inf )

  end
  begin
    id 29
    name lowerneck
    direction -0.030798 0.998024 0.0547665
    length 3.93918
    axis 0 -0 0 xyz
    dof rx ry rz
    limits( -inf , inf )
( -inf , inf )
( -inf , inf )

  end
  begin
    id 30
    name upperneck
    direction 0.0531588 0.996611 -0.0627736
    length 3.95491
    axis 0 -0 0 xyz
    dof rx ry rz
    limits( -inf , inf )
( -inf , inf )
( -inf , inf )

  end
  begin
    id 31
    name head
    direction 0 0 0
    length 0
    axis 0 0 0 xyz
    dof rx ry rz
    limits( -inf , inf )
( -inf , inf )
( -inf , inf )

  end
:hierarchy
  begin
    root lfemurDummy rfemurDummy lowerbackDummy
    lfemurDummy lfemur
    lfemur ltibia
    ltibia lfoot
    lfoot ltoes
    rfemurDummy rfemur
    rfemur rtibia
    rtibia rfoot
    rfoot rtoes
    lowerbackDummy lowerback
    lowerback upperback
    upperback thorax
    thorax rclavicle lclavicle lowerneck
    rclavicle rhumerus
    rhumerus rradius
    rradius rwrist
    rwrist rthumb rhand
    rhand rfingers
    lclavicle lhumerus
    lhumerus lradius
    lradius lwrist
    lwrist lthumb lhand
    lhand lfingers
    lowerneck upperneck
    upperneck head
  end

:SAMPLES-PER-SECOND 30
:FULLY-SPECIFIED
:DEGREES
1
root  6.267577644 41.03355408 0.1682675612 -1.473999023 -26.08399963 2.898986816
lowerback  11.71959972 1.057260036 -2.651750088
upperback  4.213510036 1.040879965 -0.5525360107
thorax  -2.201800108 0.4887199998 0.7809529901
lowerneck  -6.136300087 1.981109977 -8.104780197
upperneck  9.171710014 2.691479921 7.904459953
head  3.501420021 1.433840036 3.866149902
lclavicle  0 -9.442270133e-015 7.951389973e-016
lhumerus  15.86540031 -18.5632 80.01409912
lradius  2.15269193e-031 -2.799064396e-031 127.5630035
lwrist  -7.062250077e-031 3.531125038e-031 13.55850029
lhand  -1.496451383e-031 -27.76390076 20.11240005
lfingers  90 7.125020027 -90
lthumb  89.89689403 5.08795885 91.16245106
rclavicle  0 -9.442270133e-015 7.951389973e-016
rhumerus  15.29510021 25.66480064 -78.9815979
rradius  -2.342562325e-031 2.642204722e-031 131.5599976
rwrist  1.412450015e-030 -0 -7.898910046
rhand  -7.920061211e-032 -33.2840004 9.303460121
rfingers  -90 -7.125020027 -90
rthumb  -92.93752616 -24.25625642 -97.11982154
rfemur  -28.05590057 12.09710026 13.79119968
rtibia  -0 0 48.78889847
rfoot  -0 -16.46349907 -7.246960163
rtoes  5.373923086 19.29304026 -105.8922705
lfemur  -23.79990005 10.21199989 -15.42210007
ltibia  -0 0 55.01390076
lfoot  4.429741497e-032 -4.846069813 3.552930117
ltoes  -4.250644065 -19.5611806 -102.515957
2
root  6.267577644 41.03355408 0.1682675612 -1.473999023 -26.08399963 2.898986816
lowerback  11.71959972 1.057260036 -2.651750088
upperback  4.213510036 1.040879965 -0.5525360107
thorax  -2.201800108 0.4887199998 0.7809529901
lowerneck  -6.136300087 1.981109977 -8.104780197
upperneck  9.171710014 2.691479921 7.904459953
head  3.501420021 1.433840036 3.866149902
lclavicle  0 -9.442270133e-015 7.951389973e-016
lhumerus  15.86540031 -18.5632 80.01409912
lradius  2.15269193e-031 -2.799064396e-031 127.5630035
lwrist  -7.062250077e-031 3.531125038e-031 13.55850029
lhand  -1.496451383e-031 -27.76390076 20.11240005
lfingers  90 7.125020027 -90
lthumb  89.89689403 5.08795885 91.16245106
rclavicle  0 -9.442270133e-015 7.951389973e-016
rhumerus  15.29510021 25.66480064 -78.9815979
rradius  -2.342562325e-031 2.642204722e-031 131.5599976
rwrist  1.412450015e-030 -0 -7.898910046
rhand  -7.920061211e-032 -33.2840004 9.303460121
rfingers  -90 -7.125020027 -90
rthumb  -92.93752616 -24.25625642 -97.11982154
rfemur  -28.05590057 12.09710026 13.79119968
rtibia  -0 0 48.78889847
rfoot  -0 -16.46349907 -7.246960163
rtoes  5.373923086 19.29304026 -105.8922705
lfemur  -23.79990005 10.21199989 -15.42210007
ltibia  -0 0 55.01390076
lfoot  4.429741497e-032 -4.846069813 3.552930117
ltoes  -4.250644065 -19.5611806 -102.515957
3
root  6.289044328 40.96199997 0.02566466592 -1.684997559 -26.61799622 3.294006348
lowerback  11.74160004 0.9890819788 -2.887900114
upperback  4.215250015 0.9199650288 -0.6301609874
thorax  -2.209759951 0.4273769855 0.8492259979
lowerneck  -5.851240158 2.230269909 -7.755040169
upperneck  9.021180153 2.987279892 7.804629803
head  3.391469955 1.582299948 3.781049967
lclavicle  0 -9.442270133e-015 7.951389973e-016
lhumerus  16.12719917 -18.13500023 79.51249695
lradius  2.167123479e-031 -2.787906e-031 127.8590012
lwrist  0 -1.765562519e-031 13.16310024
lhand  -1.496451383e-031 -27.76390076 20.11240005
lfingers  90 7.125020027 -90
lthumb  89.89689403 5.08795885 91.16245106
rclavicle  0 -9.442270133e-015 7.951389973e-016
rhumerus  15.54039955 25.62140083 -79.0664978
rradius  -2.340071026e-031 2.644411396e-031 131.5059967
rwrist  7.062250077e-031 -3.531125038e-031 -8.16493988
rhand  -7.920061211e-032 -33.2840004 9.303460121
rfingers  -90 -7.125020027 -90
rthumb  -92.93752616 -24.25625642 -97.11982154
rfemur  -27.81030083 11.22270012 13.55280018
rtibia  -0 0 51.35889816
rfoot  -0 -16.37929916 -7.011189938
rtoes  5.373923086 19.29304026 -105.8922705
lfemur  -23.82049942 9.178589821 -15.45960045
ltibia  -0 0 54.91249847
lfoot  4.437698925e-032 -5.93572998 5.5583601
ltoes  -4.250644065 -19.5611806 -102.515957
4
root  6.306399698 40.86288993 -0.1172537761 -1.87902832 -27.19299316 3.656982422
lowerback  11.71829987 0.9699119925 -3.075690031
upperback  4.265799999 0.8710669875 -0.7203649879
thorax  -2.143549919 0.4005289972 0.8684700131
lowerneck  -5.741809845 2.41050005 -7.352640152
upperneck  8.797820091 3.2114501 7.604430199
head  3.299060106 1.695970058 3.655220032
lclavicle  0 -9.442270133e-015 7.951389973e-016
lhumerus  16.50090027 -17.74399948 78.98570251
lradius  2.181739727e-031 -2.776482631e-031 128.1600037
lwrist  -1.412450015e-030 -0 12.96679974
lhand  -1.496451383e-031 -27.76390076 20.11240005
lfingers  90 7.125020027 -90
lthumb  89.89689403 5.08795885 91.16245106
rclavicle  0 -9.442270133e-015 7.951389973e-016
rhumerus  16.02759933 25.35919952 -79.02429962
rradius  -2.344683109e-031 2.640322926e-031 131.6060028
rwrist  0 1.765562519e-031 -8.532819748
rhand  -7.920061211e-032 -33.2840004 9.303460121
rfingers  -90 -7.125020027 -90
rthumb  -92.93752616 -24.25625642 -97.11982154
rfemur  -27.60379982 10.64710045 13.27390003
rtibia  -0 0 54.14749908
rfoot  -0 -16.10980034 -6.532899857
rtoes  5.373923086 19.29304026 -105.8922705
lfemur  -23.81159973 8.201840401 -15.4385004
ltibia  -0 0 54.68560028
lfoot  -0 -6.999780178 7.113110065
ltoes  -4.250644065 -19.5611806 -102.515957
5
root  6.319888558 40.74666782 -0.2595711177 -2.068969727 -27.86500549 3.947998047
lowerback  11.70289993 1.001799941 -3.203180075
upperback  4.300970078 0.8971170187 -0.7726359963
thorax  -2.100239992 0.4114130139 0.8828499913
lowerneck  -5.881400108 2.688149929 -7.179349899
upperneck  8.961990356 3.558269978 7.734459877
head  3.344830036 1.880769968 3.684770107
lclavicle  0 -9.442270133e-015 7.951389973e-016
lhumerus  16.80750084 -17.24169922 78.55979919
lradius  2.196536912e-031 -2.764791065e-031 128.4660034
lwrist  -7.062250077e-031 -0 13.19649982
lhand  -1.496451383e-031 -27.76390076 20.11240005
lfingers  90 7.125020027 -90
lthumb  89.89689403 5.08795885 91.16245106
rclavicle  0 -9.442270133e-015 7.951389973e-016
rhumerus  16.55089951 24.98839951 -78.84390259
rradius  -2.357603562e-031 2.6287924e-031 131.8869934
rwrist  7.062250077e-031 -1.765562519e-031 -8.851200104
rhand  -7.920061211e-032 -33.2840004 9.303460121
rfingers  -90 -7.125020027 -90
rthumb  -92.93752616 -24.25625642 -97.11982154
rfemur  -27.38780022 10.41679955 13.04240036
rtibia  -0 0 57.05099869
rfoot  -9.16583719e-032 -15.60879993 -6.217520237
rtoes  5.373923086 19.29304026 -105.8922705
lfemur  -23.69790077 7.293360233 -15.32229996
ltibia  -0 0 54.30469894
lfoot  -0 -8.031740189 8.072460175
ltoes  -4.250644065 -19.5611806 -102.515957
6
root  6.323933038 40.60822134 -0.382337772 -2.494995117 -28.5980072 4.46697998
lowerback  11.71930027 1.080790043 -3.535909891
upperback  4.309020042 0.9602689743 -0.8358100057
thorax  -2.106460094 0.4404509962 0.9955840111
lowerneck  -5.753709793 2.882849932 -7.172420025
upperneck  8.966369629 3.80892992 7.757619858
head  3.305109978 2.003580093 3.696739912
lclavicle  0 -9.442270133e-015 7.951389973e-016
lhumerus  16.88549995 -16.76350021 78.21849823
lradius  2.213673212e-031 -2.751089774e-031 128.8220062
lwrist  -7.062250077e-031 -1.765562519e-031 13.37380028
lhand  -1.496451383e-031 -27.76390076 20.11240005
lfingers  90 7.125020027 -90
lthumb  89.89689403 5.08795885 91.16245106
rclavicle  0 -9.442270133e-015 7.951389973e-016
rhumerus  16.97480011 24.6196003 -78.62740326
rradius  -2.372705215e-031 2.615169975e-031 132.2169952
rwrist  7.062250077e-031 -1.765562519e-031 -9.219070435
rhand  -7.920061211e-032 -33.2840004 9.303460121
rfingers  -90 -7.125020027 -90
rthumb  -92.93752616 -24.25625642 -97.11982154
rfemur  -26.99670029 10.35929966 12.58469963
rtibia  -0 0 59.94839859
rfoot  -4.561811657e-032 -14.62989998 -6.096710205
rtoes  5.373923086 19.29304026 -105.8922705
lfemur  -23.30069923 6.543429852 -15.40299988
ltibia  -0 0 53.72650146
lfoot  -0 -8.676139832 8.577079773
ltoes  -4.250644065 -19.5611806 -102.515957
7
root  6.321666748 40.44066602 -0.4912044589 -3.028015137 -29.29699707 5.104980469
lowerback  11.75650024 1.16952002 -3.950299978
upperback  4.299399853 1.024189949 -0.9397910237
thorax  -2.143300056 0.4703010023 1.111039996
lowerneck  -5.312139988 2.900569916 -6.94119978
upperneck  8.473819733 3.845809937 7.290359974
head  3.097349882 2.0025599 3.498059988
lclavicle  0 -9.442270133e-015 7.951389973e-016
lhumerus  16.84009933 -16.38409996 77.86100006
lradius  2.237262472e-031 -2.731940825e-031 129.3150024
lwrist  -1.412450015e-030 -1.765562519e-031 13.49030018
lhand  -1.496451383e-031 -27.76390076 20.11240005
lfingers  90 7.125020027 -90
lthumb  89.89689403 5.08795885 91.16245106
rclavicle  0 -9.442270133e-015 7.951389973e-016
rhumerus  17.37739944 24.26639938 -78.44750214
rradius  -2.388954168e-031 2.600334982e-031 132.5740051
rwrist  1.412450015e-030 -1.765562519e-031 -9.570989609
rhand  -7.920061211e-032 -33.2840004 9.303460121
rfingers  -90 -7.125020027 -90
rthumb  -92.93752616 -24.25625642 -97.11982154
rfemur  -26.46179962 10.38899994 11.98250008
rtibia  -0 0 62.6855011
rfoot  -4.532488288e-032 -13.13500023 -6.106599808
rtoes  5.373923086 19.29304026 -105.8922705
lfemur  -22.78890038 5.877429962 -15.58339977
ltibia  -0 0 53.0223999
lfoot  -0 -8.976650238 8.558210373
ltoes  -4.250644065 -19.5611806 -102.515957
8
root  6.313044631 40.25444571 -0.6015977991 -3.484008789 -29.96000671 5.648986816
lowerback  11.78610039 1.222849965 -4.324840069
upperback  4.279379845 1.045840025 -1.034829974
thorax  -2.184789896 0.4797399938 1.218930006
lowerneck  -5.098619938 2.982980013 -6.652500153
upperneck  7.797259808 3.999569893 6.666309834
head  3.184989929 2.040889978 3.602740049
lclavicle  0 -9.442270133e-015 7.951389973e-016
lhumerus  16.77799988 -15.90219975 77.35810089
lradius  2.262153693e-031 -2.711365838e-031 129.8390045
lwrist  -7.062250077e-031 -0 13.64490032
lhand  -1.496451383e-031 -27.76390076 20.11240005
lfingers  90 7.125020027 -90
lthumb  89.89689403 5.08795885 91.16245106
rclavicle  0 -9.442270133e-015 7.951389973e-016
rhumerus  17.9116993 23.92020035 -78.30069733
rradius  -2.406643311e-031 2.583972138e-031 132.9649963
rwrist  7.062250077e-031 -0 -9.926309586
rhand  -7.920061211e-032 -33.2840004 9.303460121
rfingers  -90 -7.125020027 -90
rthumb  -92.93752616 -24.25625642 -97.11982154
rfemur  -25.77910042 10.5927 11.43799973
rtibia  -0 0 65.06639862
rfoot  -4.507170153e-032 -11.67599964 -5.907680035
rtoes  5.373923086 19.29304026 -105.8922705
lfemur  -22.27980042 5.143829823 -15.64920044
ltibia  -0 0 52.30799866
lfoot  -0 -9.692950249 7.921750069
ltoes  -4.250644065 -19.5611806 -102.515957
9
root  6.302222304 40.05422217 -0.7034422375 -3.838012695 -30.48399353 6.122009277
lowerback  11.69019985 1.272770047 -4.55355978
upperback  4.322939873 1.087440014 -1.16463995
thorax  -2.090059996 0.496717006 1.208570004
lowerneck  -5.166820049 3.026789904 -6.240739822
upperneck  7.49530983 4.058450222 6.405849934
head  3.098459959 2.075769901 3.427249908
lclavicle  0 -9.442270133e-015 7.951389973e-016
lhumerus  16.88059998 -15.56410027 76.80110168
lradius  2.286291739e-031 -2.691043315e-031 130.3509979
lwrist  -1.412450015e-030 -0 13.78639984
lhand  -1.496451383e-031 -27.76390076 20.11240005
lfingers  90 7.125020027 -90
lthumb  89.89689403 5.08795885 91.16245106
rclavicle  0 -9.442270133e-015 7.951389973e-016
rhumerus  18.57799911 23.25600052 -78.12779999
rradius  -2.426460834e-031 2.565371681e-031 133.4060059
rwrist  7.062250077e-031 1.765562519e-031 -10.34679985
rhand  -7.920061211e-032 -33.2840004 9.303460121
rfingers  -90 -7.125020027 -90
rthumb  -92.93752616 -24.25625642 -97.11982154
rfemur  -24.88249969 10.79360008 10.94690037
rtibia  -0 0 66.89769745
rfoot  -4.494119141e-032 -10.84140015 -5.273250103
rtoes  5.373923086 19.29304026 -105.8922705
lfemur  -21.82110023 4.527689934 -15.68610001
ltibia  -0 0 51.78269958
lfoot  8.992071348e-032 -10.96819973 7.021800041
ltoes  -4.250644065 -19.5611806 -102.515957
